HIERARCHY
ROOT Hips
{
	OFFSET -3.958830 18.904000 13.208200
	CHANNELS 6 Xposition Yposition Zposition Zrotation Yrotation Xrotation 
	JOINT LHipJoint
	{
		OFFSET 0.000000 0.000000 0.000000
		CHANNELS 3 Zrotation Yrotation Xrotation
		JOINT LeftUpLeg
		{
			OFFSET 1.800000 -1.400000 0.085000
			CHANNELS 3 Zrotation Yrotation Xrotation
			JOINT LeftLeg
			{
				OFFSET 2.215000 -6.000000 0.000000
				CHANNELS 3 Zrotation Yrotation Xrotation
				JOINT LeftFoot
				{
					OFFSET 2.500000 -6.900000 0.000000
					CHANNELS 3 Zrotation Yrotation Xrotation
					JOINT LeftToeBase
					{
						OFFSET 0.200000 -0.500000 1.950000
						CHANNELS 3 Zrotation Yrotation Xrotation
						End Site
						{
							OFFSET 0.000000 0.000000 0.000000
						}
					}
				}
			}
		}
	}
	JOINT RHipJoint
	{
		OFFSET 0.000000 0.000000 0.000000
		CHANNELS 3 Zrotation Yrotation Xrotation
		JOINT RightUpLeg
		{
			OFFSET -1.800000 -1.400000 0.085000
			CHANNELS 3 Zrotation Yrotation Xrotation
			JOINT RightLeg
			{
				OFFSET -2.215000 -6.000000 0.000000
				CHANNELS 3 Zrotation Yrotation Xrotation
				JOINT RightFoot
				{
					OFFSET -2.500000 -6.900000 0.000000
					CHANNELS 3 Zrotation Yrotation Xrotation
					JOINT RightToeBase
					{
						OFFSET -0.200000 -0.500000 1.950000
						CHANNELS 3 Zrotation Yrotation Xrotation
						End Site
						{
							OFFSET 0.000000 0.000000 0.000000
						}
					}
				}
			}
		}
	}
	JOINT LowerBack
	{
		OFFSET 0.000000 0.000000 0.000000
		CHANNELS 3 Zrotation Yrotation Xrotation
		JOINT Spine
		{
			OFFSET -0.087000 1.940000 -0.288900
			CHANNELS 3 Zrotation Yrotation Xrotation
			JOINT Spine1
			{
				OFFSET 0.000000 1.950000 0.060000
				CHANNELS 3 Zrotation Yrotation Xrotation
				JOINT Neck
				{
					OFFSET 0.000000 0.000000 0.000000
					CHANNELS 3 Zrotation Yrotation Xrotation
					JOINT Neck1
					{
						OFFSET 0.000000 1.600000 0.340000
						CHANNELS 3 Zrotation Yrotation Xrotation
						JOINT Head
						{
							OFFSET 0.000000 1.667000 -0.240000
							CHANNELS 3 Zrotation Yrotation Xrotation
							End Site
							{
								OFFSET 0.000000 0.000000 0.000000
							}
						}
					}
				}
				JOINT LeftShoulder
				{
					OFFSET 0.000000 0.000000 0.000000
					CHANNELS 3 Zrotation Yrotation Xrotation
					JOINT LeftArm
					{
						OFFSET 2.700000 1.550000 -0.730000
						CHANNELS 3 Zrotation Yrotation Xrotation
						JOINT LeftForeArm
						{
							OFFSET 5.450000 0.000000 0.000000
							CHANNELS 3 Zrotation Yrotation Xrotation
							JOINT LeftHand
							{
								OFFSET 3.450000 0.000000 0.000000
								CHANNELS 3 Zrotation Yrotation Xrotation
								JOINT LeftHandIndex1
								{
									OFFSET 0.750000 0.000000 0.000000
									CHANNELS 3 Zrotation Yrotation Xrotation
									End Site
									{
										OFFSET 0.000000 0.000000 0.000000
									}
								}
							}
						}
					}
				}
				JOINT RightShoulder
				{
					OFFSET 0.000000 0.000000 0.000000
					CHANNELS 3 Zrotation Yrotation Xrotation
					JOINT RightArm
					{
						OFFSET -2.700000 1.550000 -0.730000
						CHANNELS 3 Zrotation Yrotation Xrotation
						JOINT RightForeArm
						{
							OFFSET -5.450000 0.000000 0.000000
							CHANNELS 3 Zrotation Yrotation Xrotation
							JOINT RightHand
							{
								OFFSET -3.450000 0.000000 0.000000
								CHANNELS 3 Zrotation Yrotation Xrotation
								JOINT RightHandIndex1
								{
									OFFSET -0.750000 0.000000 0.000000
									CHANNELS 3 Zrotation Yrotation Xrotation
									End Site
									{
										OFFSET 0.000000 0.000000 0.000000
									}
								}
							}
						}
					}
				}
			}
		}
	}
}
MOTION
Frames: 8
Frame Time: 0.016667
-0.019160 16.942780 -1.334730 -4.035859 -0.658845 14.010804 -15.153813 12.828569 3.660262 11.982683 -1.773994 -10.316836 -7.909345 3.231066 -6.299328 0.398466 3.637156 3.279525 -0.467850 -0.343300 -0.235530 18.143172 -10.222644 3.199404 -11.581557 1.124156 -11.784400 8.199485 -2.749116 -2.611348 0.070228 -3.201590 3.163294 -0.295950 0.160420 -0.127330 -3.401022 -1.984873 -8.448544 8.377005 0.661045 -0.772666 -2.502078 0.915111 -10.730140 2.985818 -2.944842 -15.563523 -7.930318 1.746121 36.283655 -0.341280 1.413130 8.912800 -1.138411 -1.729599 5.734373 -3.974243 17.869672 -2.244869 4.766786 -8.640770 0.425588 -3.829166 2.845690 -0.076190 0.021660 -0.077000 -0.180870 -3.800006 6.290163 11.431180 6.008140 -15.866916 -1.676046 -4.672269 5.633563 -0.050252 3.267504 -0.945691 -0.117250 -0.068390 0.113870 0.183230 
-0.017890 16.940100 -1.332190 -4.012191 -0.685615 14.044064 -15.154314 12.806090 3.654695 11.964160 -1.776103 -10.258780 -7.916690 3.216166 -6.410920 0.412631 3.644746 3.285948 -0.471560 -0.342680 -0.244520 18.148566 -10.214186 3.201034 -11.628233 1.128227 -11.738702 8.173202 -2.723554 -2.757269 0.071264 -3.222250 3.159931 -0.295390 0.174200 -0.125960 -3.407955 -1.958652 -8.432542 8.343260 0.681440 -0.937315 -2.504625 0.898085 -10.519159 2.970934 -2.958017 -15.590708 -7.872557 1.730353 35.943025 -0.300230 1.376140 9.289050 -1.062418 -1.753053 5.809285 -4.112651 17.632618 -2.225707 5.364615 -7.554236 0.402958 -3.858459 2.833450 -0.091910 0.031760 -0.084350 -0.172690 -3.849566 6.314024 11.468910 5.889907 -15.902923 -1.624727 -4.572432 5.214150 -0.078414 3.279652 -0.949280 -0.115520 -0.067570 0.110510 0.192900 
-0.014500 16.934530 -1.328260 -3.925998 -0.776836 14.035432 -15.158219 12.790060 3.636516 11.836231 -1.767652 -10.115563 -7.838299 3.197045 -6.479483 0.434180 3.636901 3.294233 -0.465810 -0.335700 -0.243760 18.151989 -10.202967 3.204435 -11.775840 1.124206 -11.620185 8.140560 -2.698847 -2.953031 0.064880 -3.252096 3.149203 -0.297060 0.177160 -0.117210 -3.406725 -1.943644 -8.404062 8.215407 0.719921 -1.184762 -2.466604 0.871194 -10.064248 2.982460 -3.048539 -15.700332 -7.980709 1.761894 35.567699 -0.254580 1.381660 9.619210 -0.836341 -1.835797 5.964289 -4.440280 17.352317 -2.250018 5.857131 -6.303116 0.384953 -3.882905 2.833393 -0.107340 0.036010 -0.084680 -0.165040 -4.049512 6.443165 11.588111 5.851122 -16.023499 -1.596590 -4.289439 4.651858 -0.115545 3.299962 -0.952310 -0.102360 -0.079060 0.100970 0.202240 
-0.010510 16.929720 -1.321210 -3.772970 -0.803211 14.047333 -15.165080 12.789590 3.622914 11.635646 -1.763077 -10.045021 -7.771493 3.182095 -6.462338 0.441790 3.615340 3.300538 -0.458460 -0.329480 -0.237310 18.145121 -10.199966 3.214959 -12.045033 1.113067 -11.526914 8.219373 -2.707825 -3.069793 0.054254 -3.279497 3.134912 -0.298420 0.169250 -0.110290 -3.386274 -1.940902 -8.397579 7.917395 0.714467 -1.402672 -2.421677 0.816644 -10.005504 3.037080 -3.056159 -15.799769 -8.025182 1.751037 35.623456 -0.289620 1.401020 9.655230 -0.704863 -1.923527 6.051671 -4.413596 17.008182 -2.201789 6.166795 -5.108487 0.377018 -3.900334 2.826084 -0.109060 0.031910 -0.077790 -0.162760 -4.230123 6.527553 11.676915 5.716247 -16.149308 -1.577190 -4.071885 4.178585 -0.132987 3.316401 -0.946519 -0.092420 -0.089260 0.094230 0.204200 
-0.006940 16.925450 -1.308600 -3.703872 -0.751129 14.083350 -15.174061 12.772052 3.619396 11.622249 -1.758516 -9.946503 -7.847742 3.179630 -6.540298 0.454384 3.622903 3.295911 -0.455890 -0.323730 -0.239820 18.140268 -10.182436 3.226135 -12.182831 1.091796 -11.324404 8.323309 -2.704825 -3.306433 0.044949 -3.321581 3.117584 -0.297850 0.165200 -0.104100 -3.366489 -1.938684 -8.395124 7.711118 0.720822 -1.725991 -2.357482 0.773010 -10.055302 3.111208 -3.051746 -15.821273 -8.045419 1.651023 35.651907 -0.497910 1.398480 9.836230 -0.734451 -1.992318 6.047440 -4.264896 16.387491 -2.110490 6.487355 -3.973016 0.386896 -3.923012 2.824986 -0.118600 0.033630 -0.077120 -0.161280 -4.297216 6.587638 11.720865 5.461662 -16.497876 -1.552284 -3.837295 4.364865 -0.157150 3.315097 -0.956436 -0.082820 -0.100970 0.091430 0.208470 
-0.001460 16.921010 -1.295230 -3.663012 -0.644628 14.157455 -15.181757 12.749404 3.621842 11.632082 -1.763480 -9.875716 -7.966591 3.174292 -6.691735 0.474535 3.638926 3.292535 -0.461690 -0.322800 -0.252220 18.138662 -10.157678 3.234690 -12.270716 1.073433 -11.122468 8.382608 -2.685489 -3.576521 0.042727 -3.363764 3.104517 -0.298940 0.172960 -0.101210 -3.354399 -1.944366 -8.391608 7.602283 0.692870 -2.073956 -2.298048 0.700492 -10.191324 3.150652 -3.098404 -15.804573 -8.117757 1.629461 35.495568 -0.539230 1.351490 10.255220 -0.744993 -1.982360 6.010396 -4.354939 15.772939 -2.063354 7.013374 -3.287574 0.427583 -3.947246 2.832224 -0.139680 0.042720 -0.085700 -0.159210 -4.319288 6.593690 11.734025 5.207607 -16.817829 -1.505562 -4.018308 4.621364 -0.162955 3.316074 -0.973798 -0.074720 -0.108810 0.092400 0.218240 
0.003560 16.917550 -1.284230 -3.739181 -0.530545 14.144527 -15.190947 12.742935 3.623740 11.803408 -1.761718 -9.805793 -8.110126 3.203910 -6.708947 0.484660 3.677554 3.283723 -0.470310 -0.330750 -0.263120 18.135122 -10.135305 3.232091 -12.193907 1.041831 -10.895448 8.367283 -2.677368 -3.744153 0.044497 -3.394202 3.100316 -0.301450 0.186890 -0.097310 -3.337349 -1.977942 -8.382275 7.631206 0.644787 -2.324407 -2.179749 0.636190 -10.206907 3.222745 -3.125222 -15.774554 -8.144218 1.620450 35.273338 -0.721250 1.423220 10.626590 -0.928779 -2.057183 5.969278 -4.375850 15.278202 -2.007655 7.247600 -2.896294 0.444665 -3.969453 2.834842 -0.153920 0.056620 -0.097120 -0.157340 -4.235730 6.652612 11.752061 4.881685 -17.174812 -1.441540 -4.282125 4.835293 -0.159973 3.310103 -0.987946 -0.074850 -0.110400 0.097660 0.222970 
0.005830 16.914660 -1.276280 -3.704537 -0.493546 14.084818 -15.207259 12.730755 3.620441 11.816417 -1.763048 -9.667594 -8.169391 3.205793 -6.775901 0.487031 3.701862 3.279634 -0.473120 -0.337250 -0.264680 18.124291 -10.120423 3.233222 -12.242308 1.008038 -10.697496 8.398807 -2.682269 -3.902168 0.042124 -3.428356 3.092362 -0.302170 0.193010 -0.095660 -3.297641 -1.984457 -8.371655 7.296795 0.602634 -2.589123 -1.863224 0.561175 -10.088160 3.272497 -3.050936 -15.803998 -8.006113 1.666255 35.238069 -0.828000 1.577370 10.947110 -1.123156 -2.303785 6.027833 -4.465127 14.913562 -1.962965 7.538522 -2.526222 0.464518 -3.983740 2.834984 -0.157620 0.064730 -0.104340 -0.156540 -4.076036 6.759710 11.800662 4.788280 -17.357043 -1.384795 -4.944935 4.641375 -0.127704 3.314005 -0.999003 -0.078460 -0.112910 0.098880 0.220910 
